<svg
    xmlns="http://www.w3.org/2000/svg"
    viewBox="0 0 600 600"
    id="vector">
    <!--<rect width="256" height="256" rx="60" fill="#242938"/>-->
    <rect width="600" height="600" rx="140.625" fill="#F4F2ED"/>
    <path
        id="path"
        d="M 301.21 418.53 C 300.97 418.54 300.73 418.56 300.49 418.56 C 297.09 418.59 293.74 417.72 290.79 416.05 L 222.6 377.54 C 220.63 376.43 219 374.82 217.85 372.88 C 216.7 370.94 216.09 368.73 216.07 366.47 L 216.07 288.16 C 216.06 287.32 216.09 286.49 216.17 285.67 C 216.38 283.54 216.91 281.5 217.71 279.6 L 199.29 268.27 L 177.74 256.19 C 175.72 260.43 174.73 265.23 174.78 270.22 L 174.79 387.05 C 174.85 393.89 178.57 400.2 184.53 403.56 L 286.26 461.02 C 290.67 463.51 295.66 464.8 300.73 464.76 C 300.91 464.76 301.09 464.74 301.27 464.74 C 301.24 449.84 301.22 439.23 301.22 439.23 L 301.21 418.53 Z"
        fill="#041619"/>
    <path
        id="path_1"
        d="M 409.45 242.91 L 312.64 188.23 C 303.64 183.15 292.58 183.26 283.68 188.51 L 187.92 245 C 183.31 247.73 179.93 251.62 177.75 256.17 L 177.74 256.19 L 199.29 268.27 L 217.71 279.6 C 217.83 279.32 217.92 279.02 218.05 278.74 C 218.24 278.36 218.43 277.98 218.64 277.62 C 219.06 276.88 219.52 276.18 220.04 275.51 C 221.37 273.8 223.01 272.35 224.87 271.25 L 289.06 233.39 C 290.42 232.59 291.87 231.96 293.39 231.51 C 295.53 230.87 297.77 230.6 300 230.72 C 302.98 230.88 305.88 231.73 308.47 233.2 L 373.37 269.85 C 375.54 271.08 377.49 272.68 379.13 274.57 C 379.68 275.19 380.18 275.85 380.65 276.53 C 380.86 276.84 381.05 277.15 381.24 277.47 L 397.79 266.39 L 420.34 252.93 L 420.31 252.88 C 417.55 248.8 413.77 245.35 409.45 242.91 Z"
        fill="#37bf6e"/>
    <path
        id="path_2"
        d="M 381.24 277.47 C 381.51 277.92 381.77 278.38 382.01 278.84 C 382.21 279.24 382.39 279.65 382.57 280.06 C 382.91 280.88 383.19 281.73 383.41 282.59 C 383.74 283.88 383.92 285.21 383.93 286.57 L 383.93 361.1 C 383.96 363.95 383.35 366.77 382.16 369.36 C 381.93 369.86 381.69 370.35 381.42 370.83 C 379.75 373.79 377.32 376.27 374.39 378 L 310.2 415.87 C 307.47 417.48 304.38 418.39 301.21 418.53 L 301.22 439.23 C 301.22 439.23 301.24 449.84 301.27 464.74 C 306.1 464.61 310.91 463.3 315.21 460.75 L 410.98 404.25 C 419.88 399 425.31 389.37 425.22 379.03 L 425.22 267.85 C 425.17 262.48 423.34 257.34 420.34 252.93 L 397.79 266.39 L 381.24 277.47 Z"
        fill="#3870b2"/>
    <path
        id="path_3"
        d="M 177.75 256.17 C 179.93 251.62 183.31 247.73 187.92 245 L 283.68 188.51 C 292.58 183.26 303.64 183.15 312.64 188.23 L 409.45 242.91 C 413.77 245.35 417.55 248.8 420.31 252.88 L 420.34 252.93 L 498.59 206.19 C 494.03 199.46 487.79 193.78 480.67 189.75 L 320.86 99.49 C 306.01 91.1 287.75 91.27 273.07 99.95 L 114.99 193.2 C 107.39 197.69 101.81 204.11 98.21 211.63 L 177.74 256.19 L 177.75 256.17 Z M 301.27 464.74 C 301.09 464.74 300.91 464.76 300.73 464.76 C 295.66 464.8 290.67 463.51 286.26 461.02 L 184.53 403.56 C 178.57 400.2 174.85 393.89 174.79 387.05 L 174.78 270.22 C 174.73 265.23 175.72 260.43 177.74 256.19 L 98.21 211.63 C 94.86 218.63 93.23 226.58 93.31 234.82 L 93.31 427.67 C 93.42 438.97 99.54 449.37 109.4 454.92 L 277.31 549.77 C 284.6 553.88 292.84 556.01 301.2 555.94 L 301.2 555.8 C 301.39 543.78 301.33 495.26 301.27 464.74 Z"
        fill="#00000000"
        stroke="#083042"
        stroke-width="10"/>
    <path
        id="path_4"
        d="M 498.59 206.19 L 420.34 252.93 C 423.34 257.34 425.17 262.48 425.22 267.85 L 425.22 379.03 C 425.31 389.37 419.88 399 410.98 404.25 L 315.21 460.75 C 310.91 463.3 306.1 464.61 301.27 464.74 C 301.33 495.26 301.39 543.78 301.2 555.8 L 301.2 555.94 C 309.48 555.87 317.74 553.68 325.11 549.32 L 483.18 456.06 C 497.87 447.39 506.85 431.49 506.69 414.43 L 506.69 230.91 C 506.6 222.02 503.57 213.5 498.59 206.19 Z"
        fill="#00000000"
        stroke="#083042"
        stroke-width="10"/>
    <path
        id="path_5"
        d="M 301.2 555.94 C 292.84 556.01 284.6 553.88 277.31 549.76 L 109.4 454.92 C 99.54 449.37 93.42 438.97 93.31 427.67 L 93.31 234.82 C 93.23 226.58 94.86 218.63 98.21 211.63 C 101.81 204.11 107.39 197.69 114.99 193.2 L 273.07 99.95 C 287.75 91.27 306.01 91.1 320.86 99.49 L 480.67 189.75 C 487.79 193.78 494.03 199.46 498.59 206.19 C 503.57 213.5 506.6 222.02 506.69 230.91 L 506.69 414.43 C 506.85 431.49 497.87 447.39 483.18 456.06 L 325.11 549.32 C 317.74 553.68 309.48 555.87 301.2 555.94 Z"
        fill="#00000000"
        stroke="#083042"
        stroke-width="10"/>
</svg>
