<svg
    xmlns="http://www.w3.org/2000/svg"
    viewBox="0 0 1024 1024"
    id="vector">
    <!--<rect width="256" height="256" rx="60" fill="#F4F2ED"/>-->
    <rect width="1024" height="1024" rx="240" fill="#F4F2ED"/>
    <path
        id="path"
        d="M 716.02 390.71 C 716.19 391 716.36 391.29 716.44 391.44 C 720.67 398.77 723.15 407.12 723.29 415.83 L 725.2 613.68 C 725.29 625.35 719.17 636.11 709.18 641.87 L 537.56 740.84 C 530.21 745.08 522.4 747.83 514.44 748.31 L 516.21 902.85 C 529.29 901.76 542.34 897.56 554.45 890.38 L 837.89 726.94 C 854.4 717.22 864.52 699.46 864.36 680.21 L 861.39 353.78 C 861.29 339.38 857.2 325.52 850.25 313.5 L 850.1 313.58 C 832.16 323.54 760.98 364.78 716.02 390.71 Z"
        fill="#073042"/>
    <path
        id="path_1"
        d="M 514.39 748.53 C 505.76 749.21 497.3 747.45 489.29 743.07 L 325.1 650.53 C 309.77 641.97 300.3 625.94 300.08 608.27 L 298.44 420.04 C 298.32 411.7 300.24 403.17 303.9 395.59 L 168.94 320.39 C 162.99 332.81 159.87 346.73 160 360.53 L 162.81 671.41 C 163.09 700.37 178.8 726.87 204.04 741.05 L 474.94 893.82 C 488 901.15 502.14 903.94 516.22 902.86 L 514.39 748.53 Z"
        fill="#3ddc84"/>
    <path
        id="path_2"
        d="M 169.01 320.54 L 303.97 395.74 C 307.9 387.61 314.02 380.57 321.72 375.93 L 485.12 281.72 C 500.31 272.76 518.99 272.54 534.17 281.18 L 698.36 373.73 C 705.68 377.91 711.8 383.76 716.02 390.71 C 760.75 364.72 832.01 323.63 849.96 313.67 L 850.11 313.58 C 842.92 301.5 832.74 291.35 820.16 284.15 L 549.11 131.46 C 523.87 117.29 493.03 117.48 468.08 132.26 L 198.45 287.74 C 185.46 295.42 175.51 307.02 169.01 320.54 Z"
        fill="#4285f4"/>
    <path
        id="path_3"
        d="M 648.23 430.01 C 648.4 430.31 648.65 430.74 648.82 431.04 C 651.61 435.87 653.32 441.54 653.37 447.38 L 654.58 579.96 C 654.55 581.93 654.43 583.76 653.93 585.61 C 653.43 587.46 652.7 589.25 651.8 590.75 C 650.42 593.1 648.58 595.34 646.34 597.22 C 645.54 597.88 644.81 598.3 643.93 598.81 L 528.87 665.15 C 527.7 665.83 526.38 666.59 525.11 667.13 C 521.86 668.61 518.35 669.66 514.88 670.09 L 513.87 706.64 L 514.39 748.55 C 522.26 747.92 530.16 745.32 537.51 741.08 L 709.12 642.12 C 719.03 636.21 725.15 625.45 725.15 613.92 L 723.46 416.13 C 723.33 407.42 721 398.99 716.62 391.75 C 716.45 391.45 716.28 391.16 716.19 391.01 C 694.3 403.64 678.81 412.77 678.81 412.77 L 648.23 430.01 Z"
        fill="#041619"/>
    <path
        id="path_4"
        d="M 298.52 420.19 L 300.17 608.42 C 300.3 625.93 309.77 641.97 325.18 650.67 L 489.37 743.22 C 497.23 747.68 505.84 749.36 514.47 748.68 L 513.86 706.62 L 514.87 670.08 C 514.35 670.19 513.83 670.3 513.3 670.4 C 512.54 670.45 511.79 670.5 511.17 670.45 C 509.8 670.46 508.35 670.32 506.9 670.18 C 503.3 669.71 499.89 668.56 496.52 666.79 L 386.43 604.8 C 384.07 603.43 382 601.88 380 600.1 C 379.68 599.9 379.51 599.61 379.2 599.4 C 377.82 598.04 376.6 596.6 375.44 594.92 C 375.01 594.19 374.52 593.69 374.1 592.96 C 373.76 592.37 373.42 591.78 373 591.05 C 371.7 588.47 370.79 585.87 370.08 582.96 C 369.66 580.86 369.37 578.68 369.47 576.47 L 368.4 450.25 C 368.3 446.01 369.04 441.86 370.39 437.77 C 370.85 436.52 371.46 435.2 372.06 433.87 C 372.33 433.33 372.6 432.78 372.88 432.23 L 342.5 417.3 L 303.6 395.76 C 300.33 403.32 298.32 411.71 298.52 420.19 Z"
        fill="#37bf6e"/>
    <path
        id="path_5"
        d="M 373.25 432.2 C 373.73 431.34 374.15 430.71 374.63 429.84 C 375.05 429.21 375.47 428.58 375.89 427.95 C 376.81 426.83 377.88 425.63 378.88 424.66 C 380.54 423.12 382.28 421.72 384.34 420.54 L 493.8 357.41 C 496.89 355.63 500.08 354.38 503.38 353.65 C 503.76 353.63 504.06 353.46 504.43 353.43 C 505.48 353.22 506.39 353.09 507.52 353.02 C 508.43 352.89 509.41 352.9 510.32 352.77 C 511.69 352.77 513.14 352.91 514.59 353.05 C 516.74 353.37 518.74 353.78 520.91 354.49 C 522.3 354.86 523.62 355.46 524.95 356.06 C 525.59 356.48 526.29 356.66 526.92 357.08 L 637 419.07 C 641.72 421.82 645.68 425.6 648.59 429.98 L 679.01 412.44 C 679.01 412.44 694.58 403.45 716.39 390.68 C 712.18 383.73 706.2 377.8 698.74 373.7 L 534.55 281.15 C 519.22 272.59 500.54 272.81 485.49 281.69 L 322.1 375.91 C 314.25 380.63 308.28 387.59 304.35 395.71 L 343.26 417.25 L 373.25 432.2 Z"
        fill="#3870b2"/>
</svg>
